<svg xmlns="http://www.w3.org/2000/svg" width="206" height="155" viewBox="0 0 206 155">
  <metadata><?xpacket begin="﻿" id="W5M0MpCehiHzreSzNTczkc9d"?>
<x:xmpmeta xmlns:x="adobe:ns:meta/" x:xmptk="Adobe XMP Core 5.6-c140 79.160451, 2017/05/06-01:08:21        ">
   <rdf:RDF xmlns:rdf="http://www.w3.org/1999/02/22-rdf-syntax-ns#">
      <rdf:Description rdf:about=""/>
   </rdf:RDF>
</x:xmpmeta>
                                                                                                    
                                                                                                    
                                                                                                    
                                                                                                    
                                                                                                    
                                                                                                    
                                                                                                    
                                                                                                    
                                                                                                    
                                                                                                    
                                                                                                    
                                                                                                    
                                                                                                    
                                                                                                    
                                                                                                    
                                                                                                    
                                                                                                    
                                                                                                    
                                                                                                    
                                                                                                    
                           
<?xpacket end="w"?></metadata>
<defs>
    <style>
      .cls-1 {
        fill: #f79122;
      }

      .cls-2 {
        fill: #fff;
        fill-rule: evenodd;
      }
    </style>
  </defs>
  <rect class="cls-1" width="206" height="155"/>
  <path id="LOGO" class="cls-2" d="M38.282,35.822h2.6l-1.4,5.164h2.9L41.971,42.33H39.16l-2.608,9.848a5.83,5.83,0,0,0-.222,1.466,1.4,1.4,0,0,0,.251.9,0.779,0.779,0,0,0,.628.307q1.615,0,3.955-4.142l0.879,0.495q-2.724,5.216-5.808,5.215a2.351,2.351,0,0,1-1.811-.712,2.608,2.608,0,0,1-.661-1.847,7.993,7.993,0,0,1,.285-2.05l2.511-9.482h-2.7l0.4-1.345h2.657Zm24.27,14.314a12.133,12.133,0,0,0-.08,1.263,3.852,3.852,0,0,0,.856,2.694,2.988,2.988,0,0,0,2.325.937,4.748,4.748,0,0,0,2.269-.6,12.119,12.119,0,0,0,2.8-2.407l0.735,0.671q-3.02,3.727-6.393,3.728A5.067,5.067,0,0,1,61.177,54.7a6.286,6.286,0,0,1-1.583-4.415,9.124,9.124,0,0,1,1.327-4.645,10.717,10.717,0,0,1,3.54-3.7,7.771,7.771,0,0,1,4.132-1.416,3.853,3.853,0,0,1,2.693.953A3.028,3.028,0,0,1,72.332,43.8a4,4,0,0,1-.823,2.326A6.992,6.992,0,0,1,68.857,48.2,31.255,31.255,0,0,1,62.552,50.136ZM62.775,49.1a17.437,17.437,0,0,0,4.347-1.4,5.218,5.218,0,0,0,1.958-1.795,4.245,4.245,0,0,0,.663-2.261,2.092,2.092,0,0,0-.488-1.474,1.729,1.729,0,0,0-1.334-.529A3.945,3.945,0,0,0,64.957,43.4,13.021,13.021,0,0,0,62.775,49.1ZM33.652,60.2h5.8a11.512,11.512,0,0,1,2.3.222,5.21,5.21,0,0,1,1.887.763,3.848,3.848,0,0,1,1.28,1.458,4.992,4.992,0,0,1,.474,2.307,5.335,5.335,0,0,1-.441,2.3,3.78,3.78,0,0,1-1.214,1.48,4.933,4.933,0,0,1-1.832.784,10.79,10.79,0,0,1-2.3.231H37.095v6.1H33.652V60.2Zm3.443,6.627h2.3a4.467,4.467,0,0,0,.894-0.088,2.378,2.378,0,0,0,.773-0.3,1.6,1.6,0,0,0,.552-0.574,1.82,1.82,0,0,0,.209-0.917,1.554,1.554,0,0,0-.276-0.961,1.848,1.848,0,0,0-.706-0.565,3.083,3.083,0,0,0-.96-0.253c-0.353-.035-0.692-0.055-1.016-0.055H37.095v3.711ZM47.143,60.2H53.19a10.672,10.672,0,0,1,2.262.233,5.359,5.359,0,0,1,1.877.773,3.866,3.866,0,0,1,1.28,1.457,4.945,4.945,0,0,1,.475,2.286,4.592,4.592,0,0,1-.861,2.817,3.88,3.88,0,0,1-2.516,1.469l3.973,6.6H55.552l-3.266-6.25h-1.7v6.25H47.143V60.2Zm3.443,6.473h2.03c0.309,0,.636-0.011.982-0.033a3.081,3.081,0,0,0,.938-0.2,1.639,1.639,0,0,0,.7-0.519,1.584,1.584,0,0,0,.276-0.994,1.658,1.658,0,0,0-.243-0.95,1.628,1.628,0,0,0-.618-0.541,2.758,2.758,0,0,0-.86-0.253,6.973,6.973,0,0,0-.949-0.067H50.586v3.557Zm9.82,1.346a8.849,8.849,0,0,1,.63-3.4,7.492,7.492,0,0,1,1.754-2.6,7.754,7.754,0,0,1,2.671-1.644,10.215,10.215,0,0,1,6.753,0,7.754,7.754,0,0,1,2.671,1.644,7.5,7.5,0,0,1,1.754,2.6,9.51,9.51,0,0,1,0,6.8,7.464,7.464,0,0,1-1.754,2.594,7.722,7.722,0,0,1-2.671,1.647,10.213,10.213,0,0,1-6.753,0,7.722,7.722,0,0,1-2.671-1.647,7.462,7.462,0,0,1-1.754-2.594A8.841,8.841,0,0,1,60.406,68.018Zm3.576,0a5.729,5.729,0,0,0,.342,2.022,4.63,4.63,0,0,0,.982,1.59,4.475,4.475,0,0,0,1.534,1.049,5.5,5.5,0,0,0,3.995,0,4.487,4.487,0,0,0,1.534-1.049,4.633,4.633,0,0,0,.981-1.59,6.1,6.1,0,0,0,0-4.03,4.617,4.617,0,0,0-.981-1.6,4.491,4.491,0,0,0-1.534-1.05,5.491,5.491,0,0,0-3.995,0,4.479,4.479,0,0,0-1.534,1.05,4.614,4.614,0,0,0-.982,1.6A5.752,5.752,0,0,0,63.982,68.018ZM79.537,60.2H84.7a14.717,14.717,0,0,1,3.564.421,8.156,8.156,0,0,1,2.946,1.359,6.646,6.646,0,0,1,2,2.439,8.2,8.2,0,0,1,.739,3.645,7.455,7.455,0,0,1-.717,3.347A7.208,7.208,0,0,1,91.3,73.839a8.494,8.494,0,0,1-2.8,1.489,10.826,10.826,0,0,1-3.332.509H79.537V60.2ZM82.98,72.657h1.787a9.546,9.546,0,0,0,2.218-.244,4.719,4.719,0,0,0,1.776-.805,3.862,3.862,0,0,0,1.181-1.48,5.249,5.249,0,0,0,.43-2.243,4.369,4.369,0,0,0-.43-2,4.007,4.007,0,0,0-1.159-1.4,5.1,5.1,0,0,0-1.71-.828,7.636,7.636,0,0,0-2.064-.275H82.98v9.276Zm26.255-2.848a7.533,7.533,0,0,1-.419,2.561A5.632,5.632,0,0,1,107.57,74.4a5.7,5.7,0,0,1-2.064,1.347,8.632,8.632,0,0,1-5.716,0,5.527,5.527,0,0,1-3.31-3.379,7.543,7.543,0,0,1-.419-2.561V60.2H99.5v9.476a3.828,3.828,0,0,0,.231,1.349,3.241,3.241,0,0,0,.651,1.07,2.938,2.938,0,0,0,1,.707,3.135,3.135,0,0,0,1.268.253,3.062,3.062,0,0,0,1.259-.253,2.955,2.955,0,0,0,.992-0.707,3.221,3.221,0,0,0,.652-1.07,3.813,3.813,0,0,0,.232-1.349V60.2h3.442v9.61Zm13.221-5.545a3.368,3.368,0,0,0-1.248-.949,4.149,4.149,0,0,0-1.71-.333,4.274,4.274,0,0,0-3.233,1.427,4.883,4.883,0,0,0-.949,1.6,6.091,6.091,0,0,0,0,4.03,5.021,5.021,0,0,0,.938,1.59,4.238,4.238,0,0,0,1.4,1.049,4.033,4.033,0,0,0,1.732.375,3.874,3.874,0,0,0,1.876-.441,3.737,3.737,0,0,0,1.346-1.237l2.869,2.143a5.975,5.975,0,0,1-2.516,2.054,7.784,7.784,0,0,1-3.134.663,9.628,9.628,0,0,1-3.376-.574,7.715,7.715,0,0,1-2.671-1.647,7.458,7.458,0,0,1-1.755-2.594,9.513,9.513,0,0,1,0-6.8,7.489,7.489,0,0,1,1.755-2.6,7.746,7.746,0,0,1,2.671-1.644,9.609,9.609,0,0,1,3.376-.574,8.333,8.333,0,0,1,1.379.121,7.348,7.348,0,0,1,1.413.386,6.3,6.3,0,0,1,1.335.7A5.364,5.364,0,0,1,125.1,62.1Zm8.2-1.017h-4.459V60.2h12.36v3.049H134.1V75.837h-3.443V63.248Zm9.424-3.049h3.443V75.837h-3.443V60.2Zm4.912,0h3.929l3.862,10.25h0.044l3.929-10.25h3.685l-6.444,15.638h-2.759Zm16.994,0H172.6v3.182h-7.172V66.3H172.2v3.18h-6.775v3.181h7.569v3.18H161.982V60.2ZM33.726,80.79h5.208l3.6,10.2h0.044l3.62-10.2h5.186V96.427H47.939V84.434H47.895l-4.1,11.992H41.163L37.213,84.434H37.169V96.427H33.726V80.79ZM67.294,90.4a7.539,7.539,0,0,1-.42,2.561,5.622,5.622,0,0,1-1.246,2.031,5.685,5.685,0,0,1-2.064,1.349,8.661,8.661,0,0,1-5.716,0,5.688,5.688,0,0,1-2.063-1.349,5.626,5.626,0,0,1-1.247-2.031,7.535,7.535,0,0,1-.419-2.561V80.79h3.443v9.475a3.826,3.826,0,0,0,.232,1.348,3.245,3.245,0,0,0,.651,1.071,2.963,2.963,0,0,0,1,.706,3.123,3.123,0,0,0,1.269.254,3.046,3.046,0,0,0,1.258-.254,2.993,2.993,0,0,0,.994-0.706,3.238,3.238,0,0,0,.651-1.071,3.826,3.826,0,0,0,.232-1.348V80.79h3.443V90.4Zm10.46-5.788a2.444,2.444,0,0,0-1.136-.784,4.078,4.078,0,0,0-1.357-.256,3.534,3.534,0,0,0-.773.09,2.933,2.933,0,0,0-.751.276,1.639,1.639,0,0,0-.573.5,1.375,1.375,0,0,0,.309,1.832,4.975,4.975,0,0,0,1.335.641q0.806,0.266,1.732.529a7.225,7.225,0,0,1,1.733.751,4.1,4.1,0,0,1,1.335,1.3,3.97,3.97,0,0,1,.53,2.186,5.031,5.031,0,0,1-.485,2.276,4.655,4.655,0,0,1-1.313,1.614,5.614,5.614,0,0,1-1.921.949,8.817,8.817,0,0,1-5.131-.155,7.078,7.078,0,0,1-2.428-1.5l2.45-2.695a3.6,3.6,0,0,0,1.335,1.094,3.835,3.835,0,0,0,1.667.385,3.764,3.764,0,0,0,.849-0.1,2.8,2.8,0,0,0,.773-0.3,1.694,1.694,0,0,0,.552-0.508,1.269,1.269,0,0,0,.209-0.729,1.325,1.325,0,0,0-.541-1.116A4.986,4.986,0,0,0,74.8,90.2q-0.816-.288-1.765-0.576a7.93,7.93,0,0,1-1.765-.771,4.266,4.266,0,0,1-1.358-1.282,3.667,3.667,0,0,1-.541-2.1,4.694,4.694,0,0,1,.5-2.208,4.8,4.8,0,0,1,1.324-1.591,5.765,5.765,0,0,1,1.909-.959,7.774,7.774,0,0,1,2.229-.32,8.69,8.69,0,0,1,2.56.376,5.861,5.861,0,0,1,2.229,1.258Zm4.635-3.821h3.443V93.247H92.21v3.179H82.389V80.79Zm12.116,0h3.443V96.427H94.505V80.79Zm6.546,0h5.208l3.6,10.2H109.9l3.62-10.2h5.187V96.427h-3.443V84.434H115.22l-4.105,11.992h-2.627l-3.95-11.992h-0.044V96.427h-3.443V80.79ZM44.243,112.365l0.822,0.624a10.752,10.752,0,0,1-3.173,3,6.809,6.809,0,0,1-3.386.9,5.131,5.131,0,0,1-3.937-1.7,6.306,6.306,0,0,1-1.57-4.45,10.422,10.422,0,0,1,1.34-5.042,10.179,10.179,0,0,1,3.444-3.807,7.861,7.861,0,0,1,4.29-1.35,4.173,4.173,0,0,1,2.893.945,3.156,3.156,0,0,1,1.052,2.46,2.758,2.758,0,0,1-.542,1.818,1.688,1.688,0,0,1-1.348.65,1.631,1.631,0,0,1-1.175-.469,1.512,1.512,0,0,1-.485-1.127,1.458,1.458,0,0,1,1.184-1.48,0.7,0.7,0,0,0,.625-0.576,1.035,1.035,0,0,0-.551-0.765,2.389,2.389,0,0,0-1.406-.387,4.66,4.66,0,0,0-2.836,1.086,8.268,8.268,0,0,0-2.416,3.422,12.545,12.545,0,0,0-.995,4.967,5.156,5.156,0,0,0,.9,3.332,2.956,2.956,0,0,0,2.4,1.094Q41.777,115.507,44.243,112.365Zm11.028-11.828a5.676,5.676,0,0,1,4.3,1.883,6.708,6.708,0,0,1,1.767,4.779,10.116,10.116,0,0,1-1.258,4.844,9.366,9.366,0,0,1-3.23,3.595,7.522,7.522,0,0,1-4.093,1.251,5.736,5.736,0,0,1-4.332-1.915,6.737,6.737,0,0,1-1.8-4.8,10.471,10.471,0,0,1,4.562-8.366A7.506,7.506,0,0,1,55.271,100.537Zm0.066,1.118a3.923,3.923,0,0,0-2.49,1.045,8.9,8.9,0,0,0-2.268,3.66,14.417,14.417,0,0,0-1.011,5.232,4.862,4.862,0,0,0,.871,3.109,2.721,2.721,0,0,0,2.219,1.086,3.867,3.867,0,0,0,2.5-1.02,9.148,9.148,0,0,0,2.252-3.727,14.771,14.771,0,0,0,1.036-5.305,4.624,4.624,0,0,0-.88-3A2.755,2.755,0,0,0,55.337,101.655ZM89.9,113.724l-1.791,6.206a2.257,2.257,0,0,0-.115.616,0.857,0.857,0,0,0,.37.724,2.253,2.253,0,0,0,1.29.276h1.019l-0.312,1.2h-8.04l0.345-1.2h0.576a2.049,2.049,0,0,0,2.17-1.613L90.136,103.6a1.279,1.279,0,0,0,.066-0.411,0.874,0.874,0,0,0-.371-0.748,2.121,2.121,0,0,0-1.228-.272H87.4l0.362-1.151,5.578-.3L92.5,104.059a9.5,9.5,0,0,1,2.688-2.757,5.261,5.261,0,0,1,2.736-.765,4.494,4.494,0,0,1,3.487,1.628,6.164,6.164,0,0,1,1.442,4.245,11,11,0,0,1-1.344,5.182,10.594,10.594,0,0,1-3.365,3.924,7.123,7.123,0,0,1-4.017,1.373A4.257,4.257,0,0,1,89.9,113.724Zm7.117-11.69a4.4,4.4,0,0,0-2.922,1.425,9.873,9.873,0,0,0-2.433,4.1,14.842,14.842,0,0,0-.935,4.433,3.576,3.576,0,0,0,.833,2.506,2.861,2.861,0,0,0,2.221.913,4.133,4.133,0,0,0,2.649-1.054,9.4,9.4,0,0,0,2.369-3.677,13.37,13.37,0,0,0,1.09-5.157,3.743,3.743,0,0,0-.817-2.549A2.61,2.61,0,0,0,97.02,102.034Zm17.7,11.8a7.1,7.1,0,0,1-2.285,2.285,4.989,4.989,0,0,1-2.564.773,5.491,5.491,0,0,1-4.143-1.785,6.322,6.322,0,0,1-1.693-4.532,10.006,10.006,0,0,1,1.323-4.895,10.522,10.522,0,0,1,3.394-3.766,7.3,7.3,0,0,1,4.027-1.374,4.445,4.445,0,0,1,2.786.929,4.557,4.557,0,0,1,1.636,2.458l0.952-2.91,2.581-.3-3.6,12.538a3.62,3.62,0,0,0-.148,1.019,1.146,1.146,0,0,0,.189.707,0.558,0.558,0,0,0,.452.247,1.693,1.693,0,0,0,1.118-.675,14.23,14.23,0,0,0,2.286-3.488l0.953,0.429q-2.581,5.4-5.28,5.395a1.832,1.832,0,0,1-1.447-.666,2.536,2.536,0,0,1-.576-1.72Zm-1.728-12a4.24,4.24,0,0,0-2.621,1.046,8.487,8.487,0,0,0-2.334,3.478,12.97,12.97,0,0,0-1.01,5.019,4.568,4.568,0,0,0,.839,3.019,2.968,2.968,0,0,0,2.384.978,4,4,0,0,0,2.573-.971,9.821,9.821,0,0,0,2.359-3.807,13.386,13.386,0,0,0,1.162-5.043,3.729,3.729,0,0,0-1-2.65A3.123,3.123,0,0,0,112.993,101.836Zm15.648-1.119-1.414,5.347q3.637-5.362,6.8-5.364a2.629,2.629,0,0,1,2,.824,3.147,3.147,0,0,1,.777,2.249,9.06,9.06,0,0,1-.559,2.845l-1.44,5.562-0.349,1.385a4.074,4.074,0,0,0-.1.79,0.93,0.93,0,0,0,.2.608,0.6,0.6,0,0,0,.478.248,3.177,3.177,0,0,0,1.884-1.086,9.439,9.439,0,0,0,2.057-3.274l1.062,0.346a10.4,10.4,0,0,1-2.756,4.105,4.94,4.94,0,0,1-3.094,1.406,2.173,2.173,0,0,1-1.665-.723,2.639,2.639,0,0,1-.667-1.86,8.068,8.068,0,0,1,.306-2.089l1.576-5.972a6.075,6.075,0,0,0,.329-1.925,2.036,2.036,0,0,0-.347-1.25,1,1,0,0,0-.817-0.461q-1.066,0-3.442,2.419a15.409,15.409,0,0,0-3.6,6.647l-1.123,4.917-2.687.133,3.39-12.8a2.153,2.153,0,0,0,.082-0.576,0.89,0.89,0,0,0-.312-0.741,2.006,2.006,0,0,0-1.2-.311H122.55l0.312-1.1ZM147.727,112.5a28.274,28.274,0,0,0,2.672-5.032,7.171,7.171,0,0,0,.624-2.617,7.42,7.42,0,0,0-.23-1.464,6.075,6.075,0,0,1-.181-1.218,1.669,1.669,0,0,1,.419-1.167,1.315,1.315,0,0,1,1.011-.461,1.292,1.292,0,0,1,1.019.452,1.852,1.852,0,0,1,.395,1.259,8.318,8.318,0,0,1-.592,2.45,29.477,29.477,0,0,1-2.2,4.723L146.8,116.2a24.017,24.017,0,0,1-2.992,4.178,8.382,8.382,0,0,1-2.523,1.991,5.372,5.372,0,0,1-2.293.625,3.141,3.141,0,0,1-2.08-.691,2.093,2.093,0,0,1-.83-1.661,1.905,1.905,0,0,1,.51-1.342,1.568,1.568,0,0,1,1.183-.55,1.471,1.471,0,0,1,1.077.452,1.431,1.431,0,0,1,.452,1.045l-0.033.576-0.016.2a0.548,0.548,0,0,0,.2.444,0.777,0.777,0,0,0,.544.181,3.353,3.353,0,0,0,2.09-1.037,18.86,18.86,0,0,0,3.6-4.69l-1.069-5.591a25.81,25.81,0,0,0-1.861-6.516,1.569,1.569,0,0,0-1.037-1.02q-0.872,0-1.908,3.011l-1-.411a10.97,10.97,0,0,1,2.172-3.916,2.564,2.564,0,0,1,1.843-.936,1.782,1.782,0,0,1,1.562.872,22.342,22.342,0,0,1,2,5.788Zm13.533-7.765a2.494,2.494,0,0,1-1.821.7,2.432,2.432,0,0,1-1.807-.681,2.465,2.465,0,0,1,1.807-4.208,2.494,2.494,0,0,1,1.821.695,2.281,2.281,0,0,1,.722,1.731A2.318,2.318,0,0,1,161.26,104.731Zm-0.405-3.145a1.913,1.913,0,0,0-1.416-.551,1.947,1.947,0,0,0,0,3.893,1.851,1.851,0,0,0,1.966-1.94A1.906,1.906,0,0,0,160.855,101.586Zm-0.184,2.753h-0.563l-0.419-.932a0.243,0.243,0,0,0-.21-0.182h-0.432v1.114h-0.485v-2.767h1.022a0.779,0.779,0,0,1,.42,1.483,0.438,0.438,0,0,1,.169.2Zm-1.624-1.534h0.406a0.4,0.4,0,0,0,.472-0.446c0-.248-0.184-0.38-0.551-0.38h-0.327v0.826Zm-73.013,9.127a13.618,13.618,0,0,1-1.83,2.44,1.813,1.813,0,0,1-1.157.609,0.634,0.634,0,0,1-.488-0.207,0.768,0.768,0,0,1-.19-0.54,1.842,1.842,0,0,1,.082-0.548l1.887-7.032a11.431,11.431,0,0,0,.434-2.981,2.93,2.93,0,0,0-.8-2.159,2.849,2.849,0,0,0-2.12-.814,5.13,5.13,0,0,0-3.055,1.165,15.135,15.135,0,0,0-3.185,3.492,13.4,13.4,0,0,0,.1-1.43,3.454,3.454,0,0,0-.744-2.418,2.738,2.738,0,0,0-2.119-.809q-3.239,0-6.183,4.821l1.137-4.8-5.1.3-0.309,1.2h0.8a1.952,1.952,0,0,1,1.16.263,0.867,0.867,0,0,1,.342.731,1.806,1.806,0,0,1-.066.471l-3.416,12.9,2.666-.165,1.659-6.02a18.313,18.313,0,0,1,1.922-4.44,9.849,9.849,0,0,1,2.417-2.945,3.029,3.029,0,0,1,1.744-.595,1.467,1.467,0,0,1,1.161.456,2.1,2.1,0,0,1,.4,1.416,8.368,8.368,0,0,1-.335,2l-2.729,10.3,2.728-.165,1.639-6.074a18.515,18.515,0,0,1,2.053-4.564,8.626,8.626,0,0,1,2.412-2.685,3.079,3.079,0,0,1,1.719-.66,1.362,1.362,0,0,1,1.057.466,1.72,1.72,0,0,1,.422,1.208,5.177,5.177,0,0,1-.207,1.419l-1.939,7.355a4.533,4.533,0,0,0-.152,1.118,3.057,3.057,0,0,0,.585,2.031,1.96,1.96,0,0,0,1.572.683,3.642,3.642,0,0,0,2.337-.921,13.152,13.152,0,0,0,2.433-3ZM58.547,51.971a9.989,9.989,0,0,1-1.5,2.083,2.144,2.144,0,0,1-1.443.784,0.615,0.615,0,0,1-.481-0.2,0.8,0.8,0,0,1-.186-0.564,4.054,4.054,0,0,1,.208-1.227l1.707-6.384a8.992,8.992,0,0,0,.5-2.772,2.96,2.96,0,0,0-3.141-3.166q-3.115,0-6.339,5.117L51.494,32l-5.953.286-0.336,1.2h0.927a3.811,3.811,0,0,1,1.622.228,0.706,0.706,0,0,1,.408.648,1.963,1.963,0,0,1-.08.55L42.465,56.117l2.667-.16,1.333-5.394a15.022,15.022,0,0,1,1.883-4.321,11.826,11.826,0,0,1,2.947-3.319,3.366,3.366,0,0,1,1.884-.769,1.366,1.366,0,0,1,1.084.5,2.137,2.137,0,0,1,.432,1.431,5.86,5.86,0,0,1-.256,1.7l-1.685,6.365a5.431,5.431,0,0,0-.2,1.392,2.939,2.939,0,0,0,.616,2.008,2.114,2.114,0,0,0,1.668.695,4.4,4.4,0,0,0,2.842-1.367,8.481,8.481,0,0,0,1.575-2.01Z"/>
</svg>
