<svg xmlns="http://www.w3.org/2000/svg" width="150" height="97.495" viewBox="0 0 150 97.495">
  <g id="Logo" transform="translate(-32.993 -32)">
    <path id="LOGO-2" data-name="LOGO" d="M38.66,36.095h2.786l-1.5,5.533h3.107l-.44,1.44H39.6L36.806,53.619a6.247,6.247,0,0,0-.238,1.571,1.5,1.5,0,0,0,.269.964.835.835,0,0,0,.673.329q1.73,0,4.237-4.438l.942.53q-2.919,5.589-6.223,5.587a2.519,2.519,0,0,1-1.94-.763,2.794,2.794,0,0,1-.708-1.979,8.564,8.564,0,0,1,.305-2.2l2.69-10.159H33.921l.429-1.441H37.2Zm26,15.336a13,13,0,0,0-.086,1.353,4.127,4.127,0,0,0,.917,2.886,3.2,3.2,0,0,0,2.491,1,5.087,5.087,0,0,0,2.431-.643,12.985,12.985,0,0,0,3-2.579l.787.719q-3.236,3.993-6.85,3.994a5.429,5.429,0,0,1-4.165-1.845,6.735,6.735,0,0,1-1.7-4.73,9.776,9.776,0,0,1,1.422-4.977,11.482,11.482,0,0,1,3.793-3.964,8.326,8.326,0,0,1,4.427-1.517,4.128,4.128,0,0,1,2.885,1.021,3.244,3.244,0,0,1,1.121,2.489,4.286,4.286,0,0,1-.882,2.492,7.491,7.491,0,0,1-2.841,2.222,33.486,33.486,0,0,1-6.755,2.074Zm.239-1.11a18.682,18.682,0,0,0,4.657-1.5,5.591,5.591,0,0,0,2.1-1.923,4.548,4.548,0,0,0,.71-2.422,2.241,2.241,0,0,0-.523-1.579,1.853,1.853,0,0,0-1.429-.567,4.227,4.227,0,0,0-3.176,1.885A13.951,13.951,0,0,0,64.9,50.321ZM33.7,62.214h6.214a12.334,12.334,0,0,1,2.464.238,5.582,5.582,0,0,1,2.022.817,4.123,4.123,0,0,1,1.371,1.562,5.349,5.349,0,0,1,.508,2.472,5.716,5.716,0,0,1-.472,2.464,4.05,4.05,0,0,1-1.3,1.586,5.286,5.286,0,0,1-1.963.84,11.56,11.56,0,0,1-2.464.247h-2.69v6.536H33.7Zm3.689,7.1h2.464a4.786,4.786,0,0,0,.958-.094,2.548,2.548,0,0,0,.828-.321,1.714,1.714,0,0,0,.591-.615,1.95,1.95,0,0,0,.224-.982,1.665,1.665,0,0,0-.3-1.03,1.98,1.98,0,0,0-.756-.605,3.3,3.3,0,0,0-1.029-.271c-.378-.037-.741-.059-1.089-.059h-1.9v3.976Zm10.766-7.1h6.479a11.435,11.435,0,0,1,2.424.25,5.742,5.742,0,0,1,2.011.828,4.142,4.142,0,0,1,1.371,1.561,5.3,5.3,0,0,1,.509,2.449,4.92,4.92,0,0,1-.923,3.018,4.157,4.157,0,0,1-2.7,1.574l4.257,7.071H57.163l-3.5-6.7H51.842v6.7H48.154Zm3.689,6.935h2.175q.5,0,1.052-.035a3.3,3.3,0,0,0,1.005-.214,1.756,1.756,0,0,0,.75-.556,1.7,1.7,0,0,0,.3-1.065,1.776,1.776,0,0,0-.26-1.018,1.744,1.744,0,0,0-.662-.58,2.955,2.955,0,0,0-.921-.271,7.472,7.472,0,0,0-1.017-.072H51.842v3.811Zm10.521,1.442a9.481,9.481,0,0,1,.675-3.643,8.027,8.027,0,0,1,1.879-2.786A8.308,8.308,0,0,1,67.78,62.4a10.945,10.945,0,0,1,7.235,0,8.308,8.308,0,0,1,2.862,1.761,8.036,8.036,0,0,1,1.879,2.786,10.189,10.189,0,0,1,0,7.286,8,8,0,0,1-1.879,2.779,8.274,8.274,0,0,1-2.862,1.765,10.942,10.942,0,0,1-7.235,0,8.274,8.274,0,0,1-2.862-1.765,8,8,0,0,1-1.879-2.779,9.473,9.473,0,0,1-.675-3.644Zm3.831,0a6.138,6.138,0,0,0,.366,2.166,4.961,4.961,0,0,0,1.052,1.7,4.8,4.8,0,0,0,1.644,1.124,5.893,5.893,0,0,0,4.28,0,4.808,4.808,0,0,0,1.644-1.124,4.964,4.964,0,0,0,1.051-1.7,6.536,6.536,0,0,0,0-4.318,4.947,4.947,0,0,0-1.051-1.714A4.812,4.812,0,0,0,73.538,65.6a5.883,5.883,0,0,0-4.28,0,4.8,4.8,0,0,0-1.644,1.125,4.944,4.944,0,0,0-1.052,1.714,6.163,6.163,0,0,0-.366,2.15Zm16.666-8.377h5.532a15.768,15.768,0,0,1,3.819.451,8.739,8.739,0,0,1,3.156,1.456,7.121,7.121,0,0,1,2.143,2.613A8.786,8.786,0,0,1,98.3,70.64a7.988,7.988,0,0,1-.768,3.586,7.723,7.723,0,0,1-2.07,2.6,9.1,9.1,0,0,1-3,1.6,11.6,11.6,0,0,1-3.57.545H82.861ZM86.55,75.561h1.915a10.228,10.228,0,0,0,2.376-.261,5.057,5.057,0,0,0,1.9-.862,4.138,4.138,0,0,0,1.265-1.586,5.624,5.624,0,0,0,.461-2.4,4.681,4.681,0,0,0-.461-2.143,4.293,4.293,0,0,0-1.242-1.5,5.464,5.464,0,0,0-1.832-.887,8.181,8.181,0,0,0-2.211-.295H86.55v9.938Zm28.13-3.051a8.071,8.071,0,0,1-.449,2.744,6.034,6.034,0,0,1-1.335,2.175,6.107,6.107,0,0,1-2.211,1.443,9.249,9.249,0,0,1-6.124,0,5.922,5.922,0,0,1-3.546-3.62,8.082,8.082,0,0,1-.449-2.744V62.214h3.685V72.367a4.1,4.1,0,0,0,.248,1.445,3.472,3.472,0,0,0,.7,1.146,3.148,3.148,0,0,0,1.071.757,3.359,3.359,0,0,0,1.359.271,3.281,3.281,0,0,0,1.349-.271,3.166,3.166,0,0,0,1.063-.757,3.451,3.451,0,0,0,.7-1.146,4.086,4.086,0,0,0,.249-1.445V62.214h3.688v10.3Zm14.165-5.941a3.609,3.609,0,0,0-1.337-1.017,4.445,4.445,0,0,0-1.832-.357,4.579,4.579,0,0,0-3.464,1.529,5.232,5.232,0,0,0-1.017,1.714,6.526,6.526,0,0,0,0,4.318,5.38,5.38,0,0,0,1,1.7,4.541,4.541,0,0,0,1.5,1.124,4.321,4.321,0,0,0,1.856.4,4.151,4.151,0,0,0,2.01-.473,4,4,0,0,0,1.442-1.325l3.074,2.3a6.4,6.4,0,0,1-2.7,2.2,8.34,8.34,0,0,1-3.358.71,10.316,10.316,0,0,1-3.617-.615,8.266,8.266,0,0,1-2.862-1.765,7.991,7.991,0,0,1-1.88-2.779,10.193,10.193,0,0,1,0-7.286,8.025,8.025,0,0,1,1.88-2.786,8.3,8.3,0,0,1,2.862-1.761,10.3,10.3,0,0,1,3.617-.615,8.928,8.928,0,0,1,1.477.13,7.873,7.873,0,0,1,1.514.414,6.75,6.75,0,0,1,1.43.75,5.747,5.747,0,0,1,1.228,1.169Zm8.786-1.09h-4.777V62.214H146.1v3.267h-4.775V78.968h-3.689V65.48Zm10.1-3.267h3.689V78.968h-3.689V62.214Zm5.263,0h4.21l4.138,10.982h.047l4.21-10.982h3.948l-6.9,16.755h-2.956Zm18.208,0h11.372v3.409h-7.684V68.75h7.256v3.407h-7.259v3.408h8.11v3.407h-11.8V62.214ZM33.778,84.275h5.58L43.215,95.2h.047l3.879-10.928H52.7v16.754H49.006V88.179h-.047l-4.393,12.848h-2.82L37.514,88.179h-.047v12.85H33.778Zm35.965,10.3a8.078,8.078,0,0,1-.45,2.744,6.024,6.024,0,0,1-1.335,2.176,6.091,6.091,0,0,1-2.211,1.445,9.28,9.28,0,0,1-6.124,0,6.1,6.1,0,0,1-2.21-1.445,6.028,6.028,0,0,1-1.336-2.176,8.073,8.073,0,0,1-.449-2.744v-10.3h3.689V94.426a4.1,4.1,0,0,0,.249,1.444,3.477,3.477,0,0,0,.7,1.147,3.174,3.174,0,0,0,1.071.756,3.346,3.346,0,0,0,1.36.272,3.264,3.264,0,0,0,1.348-.272,3.206,3.206,0,0,0,1.065-.756,3.469,3.469,0,0,0,.7-1.147,4.1,4.1,0,0,0,.249-1.444V84.275h3.689v10.3Zm11.207-6.2a2.618,2.618,0,0,0-1.217-.84,4.369,4.369,0,0,0-1.454-.274,3.787,3.787,0,0,0-.828.1,3.142,3.142,0,0,0-.8.3,1.756,1.756,0,0,0-.614.536,1.473,1.473,0,0,0,.331,1.963,5.33,5.33,0,0,0,1.43.687q.864.285,1.856.567a7.742,7.742,0,0,1,1.857.8,4.393,4.393,0,0,1,1.43,1.393,4.254,4.254,0,0,1,.568,2.342,5.39,5.39,0,0,1-.52,2.439,4.987,4.987,0,0,1-1.407,1.729,6.015,6.015,0,0,1-2.058,1.017,9.447,9.447,0,0,1-5.5-.166,7.584,7.584,0,0,1-2.6-1.607l2.625-2.887a3.857,3.857,0,0,0,1.43,1.172,4.109,4.109,0,0,0,1.786.413,4.032,4.032,0,0,0,.91-.107A3,3,0,0,0,79,97.619a1.815,1.815,0,0,0,.591-.544,1.36,1.36,0,0,0,.224-.781,1.42,1.42,0,0,0-.58-1.2,5.343,5.343,0,0,0-1.451-.741q-.874-.309-1.891-.617A8.5,8.5,0,0,1,74,92.913a4.571,4.571,0,0,1-1.455-1.374,3.929,3.929,0,0,1-.58-2.25,5.029,5.029,0,0,1,.536-2.366,5.143,5.143,0,0,1,1.419-1.7,6.177,6.177,0,0,1,2.045-1.027,8.33,8.33,0,0,1,2.388-.343,9.311,9.311,0,0,1,2.743.4A6.28,6.28,0,0,1,83.488,85.6Zm4.966-4.094h3.689V97.621h6.834v3.406H85.917V84.275Zm12.981,0h3.689v16.753H98.9V84.275Zm7.014,0h5.58L115.349,95.2h.044l3.879-10.928h5.557v16.753H121.14V88.179h-.047l-4.4,12.848H113.88l-4.232-12.848H109.6v12.85h-3.689V84.275ZM45.046,118.1l.881.669a11.52,11.52,0,0,1-3.4,3.214,7.3,7.3,0,0,1-3.628.964,5.5,5.5,0,0,1-4.218-1.821A6.756,6.756,0,0,1,33,116.362a11.166,11.166,0,0,1,1.436-5.4,10.906,10.906,0,0,1,3.69-4.079,8.422,8.422,0,0,1,4.6-1.446,4.471,4.471,0,0,1,3.1,1.012,3.381,3.381,0,0,1,1.127,2.636,2.955,2.955,0,0,1-.581,1.948,1.809,1.809,0,0,1-1.444.7,1.747,1.747,0,0,1-1.259-.5,1.62,1.62,0,0,1-.52-1.207,1.562,1.562,0,0,1,1.269-1.586.75.75,0,0,0,.67-.617,1.109,1.109,0,0,0-.59-.82,2.559,2.559,0,0,0-1.506-.415,4.993,4.993,0,0,0-3.039,1.164,8.859,8.859,0,0,0-2.589,3.666,13.441,13.441,0,0,0-1.066,5.322,5.524,5.524,0,0,0,.964,3.57,3.167,3.167,0,0,0,2.571,1.172Q42.4,121.471,45.046,118.1Zm11.816-12.673a6.081,6.081,0,0,1,4.607,2.017,7.187,7.187,0,0,1,1.893,5.12,10.838,10.838,0,0,1-1.348,5.19,10.035,10.035,0,0,1-3.461,3.852,8.059,8.059,0,0,1-4.385,1.34,6.146,6.146,0,0,1-4.641-2.052,7.218,7.218,0,0,1-1.929-5.143,11.219,11.219,0,0,1,4.888-8.964,8.042,8.042,0,0,1,4.376-1.362Zm.071,1.2a4.2,4.2,0,0,0-2.668,1.12,9.536,9.536,0,0,0-2.43,3.921,15.447,15.447,0,0,0-1.083,5.606,5.209,5.209,0,0,0,.933,3.331,2.915,2.915,0,0,0,2.377,1.164,4.143,4.143,0,0,0,2.679-1.093,9.8,9.8,0,0,0,2.413-3.993A15.826,15.826,0,0,0,60.264,111a4.954,4.954,0,0,0-.943-3.214,2.952,2.952,0,0,0-2.388-1.157Zm37.031,12.931-1.919,6.649a2.419,2.419,0,0,0-.123.66.918.918,0,0,0,.4.776,2.414,2.414,0,0,0,1.382.3h1.092l-.334,1.286H85.844l.37-1.286h.617a2.2,2.2,0,0,0,2.325-1.728l5.061-17.5a1.371,1.371,0,0,0,.071-.44.936.936,0,0,0-.4-.8,2.272,2.272,0,0,0-1.316-.291H91.286l.388-1.233,5.976-.321-.9,3.58a10.179,10.179,0,0,1,2.88-2.954,5.637,5.637,0,0,1,2.931-.82,4.815,4.815,0,0,1,3.736,1.744,6.6,6.6,0,0,1,1.545,4.548,11.786,11.786,0,0,1-1.44,5.552,11.351,11.351,0,0,1-3.605,4.2,7.632,7.632,0,0,1-4.3,1.471,4.561,4.561,0,0,1-4.529-3.391Zm7.625-12.525a4.714,4.714,0,0,0-3.131,1.527,10.578,10.578,0,0,0-2.607,4.393,15.9,15.9,0,0,0-1,4.75,3.831,3.831,0,0,0,.892,2.685,3.065,3.065,0,0,0,2.38.978,4.428,4.428,0,0,0,2.838-1.129,10.071,10.071,0,0,0,2.538-3.94,14.325,14.325,0,0,0,1.168-5.525,4.01,4.01,0,0,0-.875-2.731,2.8,2.8,0,0,0-2.2-1.007Zm18.964,12.643a7.607,7.607,0,0,1-2.448,2.448,5.345,5.345,0,0,1-2.747.828,5.883,5.883,0,0,1-4.439-1.913,6.773,6.773,0,0,1-1.814-4.856,10.721,10.721,0,0,1,1.417-5.245,11.274,11.274,0,0,1,3.636-4.035,7.821,7.821,0,0,1,4.315-1.472,4.763,4.763,0,0,1,2.985,1,4.883,4.883,0,0,1,1.753,2.634l1.02-3.118,2.765-.321-3.857,13.433a3.878,3.878,0,0,0-.159,1.092,1.228,1.228,0,0,0,.2.757.6.6,0,0,0,.484.265,1.814,1.814,0,0,0,1.2-.723,15.246,15.246,0,0,0,2.449-3.737l1.021.46q-2.765,5.786-5.657,5.78a1.963,1.963,0,0,1-1.55-.714,2.717,2.717,0,0,1-.617-1.843ZM118.7,106.821a4.543,4.543,0,0,0-2.808,1.121,9.093,9.093,0,0,0-2.5,3.726,13.9,13.9,0,0,0-1.082,5.377,4.894,4.894,0,0,0,.9,3.235,3.18,3.18,0,0,0,2.554,1.048,4.286,4.286,0,0,0,2.757-1.04,10.522,10.522,0,0,0,2.527-4.079,14.342,14.342,0,0,0,1.245-5.4,4,4,0,0,0-1.071-2.839,3.346,3.346,0,0,0-2.516-1.143Zm16.766-1.2-1.515,5.729q3.9-5.745,7.286-5.747a2.817,2.817,0,0,1,2.143.883,3.372,3.372,0,0,1,.832,2.41,9.706,9.706,0,0,1-.6,3.048l-1.543,5.959-.374,1.484a4.37,4.37,0,0,0-.107.846,1,1,0,0,0,.214.651.643.643,0,0,0,.512.266,3.4,3.4,0,0,0,2.019-1.164,10.113,10.113,0,0,0,2.2-3.508l1.138.371a11.143,11.143,0,0,1-2.953,4.4,5.293,5.293,0,0,1-3.315,1.506,2.328,2.328,0,0,1-1.784-.775,2.827,2.827,0,0,1-.715-1.993,8.644,8.644,0,0,1,.328-2.238l1.689-6.4a6.509,6.509,0,0,0,.352-2.062,2.181,2.181,0,0,0-.372-1.339,1.071,1.071,0,0,0-.875-.494q-1.142,0-3.688,2.592a16.509,16.509,0,0,0-3.857,7.122l-1.2,5.268-2.879.143,3.632-13.714a2.306,2.306,0,0,0,.088-.617.954.954,0,0,0-.334-.794,2.149,2.149,0,0,0-1.286-.333h-1.56l.334-1.179Zm20.453,12.627a30.294,30.294,0,0,0,2.863-5.391,7.683,7.683,0,0,0,.669-2.8,7.955,7.955,0,0,0-.246-1.569,6.508,6.508,0,0,1-.194-1.3,1.788,1.788,0,0,1,.449-1.25,1.409,1.409,0,0,1,1.083-.494,1.384,1.384,0,0,1,1.092.484,1.984,1.984,0,0,1,.423,1.349,8.912,8.912,0,0,1-.634,2.625,31.582,31.582,0,0,1-2.357,5.06l-4.14,7.259a25.734,25.734,0,0,1-3.206,4.476,8.98,8.98,0,0,1-2.7,2.133,5.755,5.755,0,0,1-2.457.67,3.365,3.365,0,0,1-2.229-.74,2.242,2.242,0,0,1-.889-1.78,2.041,2.041,0,0,1,.546-1.438,1.68,1.68,0,0,1,1.268-.589,1.576,1.576,0,0,1,1.154.484,1.533,1.533,0,0,1,.484,1.12l-.035.617-.017.214a.587.587,0,0,0,.214.476.832.832,0,0,0,.583.194,3.592,3.592,0,0,0,2.239-1.111,20.206,20.206,0,0,0,3.857-5.025l-1.145-5.99a27.654,27.654,0,0,0-1.994-6.981,1.681,1.681,0,0,0-1.111-1.093q-.934,0-2.044,3.226l-1.071-.44a11.753,11.753,0,0,1,2.327-4.2,2.747,2.747,0,0,1,1.975-1,1.909,1.909,0,0,1,1.674.934,23.937,23.937,0,0,1,2.143,6.2Zm14.5-8.32a2.672,2.672,0,0,1-1.951.75,2.606,2.606,0,0,1-1.936-.73,2.641,2.641,0,0,1,1.936-4.509,2.672,2.672,0,0,1,1.951.745,2.444,2.444,0,0,1,.774,1.855,2.483,2.483,0,0,1-.774,1.885Zm-.434-3.37a2.05,2.05,0,0,0-1.517-.59,2.086,2.086,0,0,0,0,4.171,1.983,1.983,0,0,0,2.106-2.079,2.042,2.042,0,0,0-.589-1.506Zm-.2,2.95h-.6l-.449-1a.26.26,0,0,0-.225-.2h-.463v1.194h-.52v-2.965h1.1a.835.835,0,0,1,.45,1.589.469.469,0,0,1,.181.214Zm-1.74-1.644h.435a.429.429,0,0,0,.506-.478c0-.266-.2-.407-.59-.407h-.35v.885Zm-78.228,9.779a14.59,14.59,0,0,1-1.961,2.614,1.942,1.942,0,0,1-1.24.652.679.679,0,0,1-.523-.222.823.823,0,0,1-.2-.579,1.974,1.974,0,0,1,.088-.587l2.022-7.534a12.247,12.247,0,0,0,.465-3.194,3.139,3.139,0,0,0-.857-2.313,3.052,3.052,0,0,0-2.271-.872,5.5,5.5,0,0,0-3.273,1.248,16.216,16.216,0,0,0-3.412,3.741,14.355,14.355,0,0,0,.107-1.532,3.7,3.7,0,0,0-.8-2.591,2.933,2.933,0,0,0-2.27-.867q-3.47,0-6.625,5.165l1.218-5.143-5.464.321-.331,1.286h.857a2.092,2.092,0,0,1,1.243.282.929.929,0,0,1,.366.783,1.935,1.935,0,0,1-.071.5l-3.66,13.821,2.856-.177L67.863,116a19.621,19.621,0,0,1,2.059-4.757,10.552,10.552,0,0,1,2.59-3.155,3.245,3.245,0,0,1,1.869-.637,1.572,1.572,0,0,1,1.244.489,2.25,2.25,0,0,1,.429,1.517,8.965,8.965,0,0,1-.359,2.143l-2.924,11.036,2.923-.177,1.756-6.508a19.838,19.838,0,0,1,2.2-4.89,9.242,9.242,0,0,1,2.584-2.877,3.3,3.3,0,0,1,1.842-.707,1.459,1.459,0,0,1,1.132.5,1.843,1.843,0,0,1,.452,1.294,5.546,5.546,0,0,1-.222,1.52l-2.077,7.88a4.858,4.858,0,0,0-.163,1.2,3.275,3.275,0,0,0,.627,2.176,2.1,2.1,0,0,0,1.684.732,3.9,3.9,0,0,0,2.5-.987,14.091,14.091,0,0,0,2.607-3.214ZM60.372,53.4a10.7,10.7,0,0,1-1.607,2.232,2.3,2.3,0,0,1-1.546.84.659.659,0,0,1-.515-.214.857.857,0,0,1-.2-.6,4.343,4.343,0,0,1,.223-1.315l1.829-6.84a9.634,9.634,0,0,0,.536-2.97,3.171,3.171,0,0,0-3.365-3.392q-3.337,0-6.792,5.482L52.815,32l-6.378.306-.36,1.286h.993a4.084,4.084,0,0,1,1.738.244.756.756,0,0,1,.437.694,2.1,2.1,0,0,1-.086.589L43.141,57.839,46,57.668l1.428-5.779a16.1,16.1,0,0,1,2.017-4.63A12.671,12.671,0,0,1,52.6,43.7a3.606,3.606,0,0,1,2.019-.824,1.464,1.464,0,0,1,1.161.536,2.29,2.29,0,0,1,.463,1.533,6.278,6.278,0,0,1-.274,1.821l-1.805,6.82a5.82,5.82,0,0,0-.214,1.491,3.149,3.149,0,0,0,.66,2.151,2.265,2.265,0,0,0,1.787.745,4.714,4.714,0,0,0,3.045-1.465,9.087,9.087,0,0,0,1.687-2.154Z" transform="translate(0 0)" fill="#ffffff" fill-rule="evenodd"/>
  </g>
</svg>
